<svg width="0" height="0" class="hidden">
  <symbol xmlns="http://www.w3.org/2000/svg" viewBox="0 0 19 19" id="search">
    <path fill-rule="evenodd" clip-rule="evenodd" d="M17.9 16.486l-3.58-3.58a8 8 0 10-1.415 1.413l3.58 3.58a1 1 0 101.416-1.413zM13.198 11A6 6 0 112.804 5a6 6 0 0110.393 6z"></path>
  </symbol>
  <symbol xmlns="http://www.w3.org/2000/svg" viewBox="0 0 57 43" id="video">
    <path  fill-rule="evenodd" clip-rule="evenodd" d="M46.447 6.358L38.5 12.243V5.594C38.501 2.7 36.203.36 33.37.36H5.133C2.293.36 0 2.703 0 5.594v31.36c0 2.896 2.298 5.235 5.133 5.235h28.236c2.84 0 5.132-2.344 5.132-5.235v-6.649l7.946 5.886c.568.421 1.614.769 2.325.769h5.122c1.437 0 2.575-1.173 2.575-2.62V8.21c0-1.449-1.153-2.621-2.575-2.621h-5.122c-.725 0-1.752.344-2.325.769zM5.134 36.96V5.589h28.234V36.96H5.134zm5.133-7.843c0-1.444 1.151-2.614 2.574-2.614H25.66c1.422 0 2.574 1.16 2.574 2.614 0 1.444-1.151 2.614-2.574 2.614H12.84c-1.421 0-2.574-1.16-2.574-2.614zm38.904 2.614l-10.639-7.868.001-5.178 10.63-7.875 2.172.003V31.73l-2.164.002z" ></path>
  </symbol>
   <symbol  xmlns="http://www.w3.org/2000/svg" viewBox="0 0 47 55" id="notifications">
    <path fill-rule="evenodd" clip-rule="evenodd" d="M8.205 47.048c-4.236 0-7.674-3.324-7.674-7.415 0-2.716 1.521-5.137 3.845-6.43l-.01-9.64c0-8.54 5.93-15.731 14.059-17.88V5.03c0-2.73 2.289-4.943 5.112-4.943 2.824 0 5.113 2.213 5.113 4.943v.654c8.13 2.148 14.059 9.34 14.059 17.893v9.65c2.327 1.298 3.834 3.709 3.834 6.407 0 4.097-3.433 7.415-7.674 7.415h-7.663c-.005 4.096-3.445 7.415-7.669 7.415-4.235 0-7.668-3.317-7.668-7.41l-7.664-.005zm12.776 0c0 1.367 1.143 2.471 2.556 2.471 1.403 0 2.552-1.108 2.556-2.471h-5.112zm16.615-23.472V35.52c0 .685.565 1.382 1.246 1.552l.67.167c1.119.28 1.919 1.264 1.919 2.394 0 1.366-1.144 2.471-2.562 2.471H8.205c-1.412 0-2.561-1.11-2.561-2.471 0-1.135.796-2.115 1.915-2.394l.693-.172c.677-.169 1.226-.856 1.226-1.547V23.563c0-7.506 6.293-13.59 14.06-13.59 7.768 0 14.058 6.082 14.058 13.603z"></path>
  </symbol>
  <symbol  xmlns="http://www.w3.org/2000/svg" viewBox="0 0 44 45" id="apps">
    <path  fill-rule="evenodd" clip-rule="evenodd" d="M16.771 5.589a5.229 5.229 0 1010.458 0 5.229 5.229 0 00-10.457 0zm-16.73 0a5.229 5.229 0 1010.456 0 5.229 5.229 0 00-10.457 0zm5.228 21.96a5.229 5.229 0 110-10.458 5.229 5.229 0 010 10.458zm0 16.731a5.229 5.229 0 110-10.457 5.229 5.229 0 010 10.457zm16.731 0a5.229 5.229 0 110-10.457 5.229 5.229 0 010 10.457zm11.503-5.229a5.229 5.229 0 1010.457 0 5.229 5.229 0 00-10.457 0zM22 27.55a5.229 5.229 0 110-10.458 5.229 5.229 0 010 10.458zm16.731 0a5.229 5.229 0 110-10.458 5.229 5.229 0 010 10.458zM33.503 5.59a5.229 5.229 0 1010.457 0 5.229 5.229 0 00-10.457 0z" ></path>
  </symbol>
</svg>